<svg xmlns="http://www.w3.org/2000/svg" viewBox="0 0 400 460" fill="none">
  <defs>
    <radialGradient id="hood" cx="0.5" cy="0.35" r="0.7">
      <stop offset="0%" stop-color="#11202e"/>
      <stop offset="55%" stop-color="#0a131c"/>
      <stop offset="100%" stop-color="#05080d"/>
    </radialGradient>
    <linearGradient id="beak" x1="0.5" y1="0" x2="0.5" y2="1">
      <stop offset="0%" stop-color="#a5f3fc"/>
      <stop offset="35%" stop-color="#3b82f6"/>
      <stop offset="100%" stop-color="#0a131c"/>
    </linearGradient>
    <linearGradient id="rim" x1="0" y1="0" x2="1" y2="1">
      <stop offset="0%" stop-color="#67e8f9"/>
      <stop offset="50%" stop-color="#22d3ee"/>
      <stop offset="100%" stop-color="#0891b2"/>
    </linearGradient>
    <filter id="cyanGlow" x="-30%" y="-30%" width="160%" height="160%">
      <feGaussianBlur stdDeviation="2.5" result="b"/>
      <feMerge>
        <feMergeNode in="b"/>
        <feMergeNode in="SourceGraphic"/>
      </feMerge>
    </filter>
  </defs>

  <path d="M 200 30 C 280 30, 340 95, 340 180 C 340 230, 335 270, 330 305 C 322 340, 305 370, 285 395 L 270 420 L 248 410 C 235 402, 222 395, 210 388 L 200 430 L 190 388 C 178 395, 165 402, 152 410 L 130 420 L 115 395 C 95 370, 78 340, 70 305 C 65 270, 60 230, 60 180 C 60 95, 120 30, 200 30 Z" fill="url(#hood)" stroke="url(#rim)" stroke-width="3" stroke-linejoin="round" filter="url(#cyanGlow)"/>
  <ellipse cx="200" cy="170" rx="105" ry="125" fill="#06090f" opacity="0.55"/>
  <path d="M 95 175 C 125 168, 155 195, 180 235 C 168 240, 152 235, 140 228 C 120 216, 105 198, 95 175 Z" fill="#ffffff"/>
  <path d="M 92 168 C 122 160, 154 190, 184 235" stroke="#67e8f9" stroke-width="2.2" fill="none" opacity="0.85"/>
  <path d="M 305 175 C 275 168, 245 195, 220 235 C 232 240, 248 235, 260 228 C 280 216, 295 198, 305 175 Z" fill="#ffffff"/>
  <path d="M 308 168 C 278 160, 246 190, 216 235" stroke="#67e8f9" stroke-width="2.2" fill="none" opacity="0.85"/>
  <path d="M 200 220 L 218 270 L 215 360 L 200 410 L 185 360 L 182 270 Z" fill="url(#beak)" stroke="#67e8f9" stroke-width="1.5"/>
  <path d="M 200 230 L 200 405" stroke="#e0f7fa" stroke-width="1.4" opacity="0.55"/>
  <path d="M 75 360 C 100 365, 135 380, 175 420 C 155 415, 125 408, 100 408 C 88 405, 80 388, 75 360 Z" fill="#ffffff"/>
  <path d="M 325 360 C 300 365, 265 380, 225 420 C 245 415, 275 408, 300 408 C 312 405, 320 388, 325 360 Z" fill="#ffffff"/>
  <path d="M 130 55 C 165 35, 235 35, 270 55" stroke="#a5f3fc" stroke-width="2.5" fill="none" opacity="0.9" stroke-linecap="round"/>
</svg>
